<?xml version="1.0" encoding="UTF-8" standalone="no"?>
<svg
   width="32px"
   height="32px"
   viewBox="0 0 32 32"
   id="icon"
   version="1.1"
   sodipodi:docname="industry-svgrepo-com.svg"
   inkscape:version="1.1.1 (3bf5ae0d25, 2021-09-20)"
   xmlns:inkscape="http://www.inkscape.org/namespaces/inkscape"
   xmlns:sodipodi="http://sodipodi.sourceforge.net/DTD/sodipodi-0.dtd"
   xmlns="http://www.w3.org/2000/svg"
   xmlns:svg="http://www.w3.org/2000/svg">
  <sodipodi:namedview
     id="namedview12"
     pagecolor="#ffffff"
     bordercolor="#666666"
     borderopacity="1.0"
     inkscape:pageshadow="2"
     inkscape:pageopacity="0.0"
     inkscape:pagecheckerboard="0"
     showgrid="false"
     inkscape:zoom="25.375"
     inkscape:cx="15.980296"
     inkscape:cy="16.019704"
     inkscape:window-width="1920"
     inkscape:window-height="1001"
     inkscape:window-x="1187"
     inkscape:window-y="1341"
     inkscape:window-maximized="1"
     inkscape:current-layer="icon" />
  <defs
     id="defs4">
    <style
       id="style2">.cls-1{fill:none;}</style>
  </defs>
  <title
     id="title6">industry</title>
  <path
     d="M29.53,6.15a1,1,0,0,0-1,0L20,10.38V7a1,1,0,0,0-1.45-.89L10,10.38V3A1,1,0,0,0,9,2H3A1,1,0,0,0,2,3V28H30V7A1,1,0,0,0,29.53,6.15ZM22,26H18V19h4Zm6,0H24V18a1,1,0,0,0-1-1H17a1,1,0,0,0-1,1v8H4V4H8v9.62l10-5v5l10-5Z"
     transform="translate(0 0)"
     id="path8"
     style="fill:#ffffff" />
  <rect
     id="_Transparent_Rectangle_"
     data-name="&lt;Transparent Rectangle&gt;"
     class="cls-1"
     width="32"
     height="32" />
</svg>
